# MagicaVoxel @ Ephtracy

# group
o 

# material
mtllib FoxB.mtl
usemtl palette

# normals
vn -1 0 0
vn 1 0 0
vn 0 0 1
vn 0 0 -1
vn 0 -1 0
vn 0 1 0

# texcoords
vt 0.00195313 0.5
vt 0.0605469 0.5
vt 0.0917969 0.5
vt 0.537109 0.5
vt 0.970703 0.5

# verts
v -1.8 1.9 0.7
v -1.8 1.9 0.6
v -1.8 2.1 0.7
v -1.8 2.1 0.6
v -1.4 1.8 0.7
v -1.4 1.8 0.6
v -1.4 1.9 0.7
v -1.4 1.9 0.6
v -1.4 2.1 0.7
v -1.4 2.1 0.6
v -1.4 2.2 0.7
v -1.4 2.2 0.6
v -1.4 2.3 0.7
v -1.4 2.3 0.6
v -1.1 1.8 0.7
v -1.1 1.8 0.6
v -1.1 1.9 0.7
v -1.1 1.9 0.6
v -1.3 1.8 0.7
v -1.3 1.8 0.6
v -1.3 1.9 0.7
v -1.3 1.9 0.6
v -1.1 2.1 0.7
v -1.1 2.1 0.6
v -1.1 2.2 0.7
v -1.1 2.2 0.6
v -1.1 2.3 0.7
v -1.1 2.3 0.6
v -1 1.8 0.7
v -1 1.8 0.6
v -1 1.9 0.7
v -1 1.9 0.6
v -1 2.1 0.7
v -1 2.1 0.6
v -1.8 1.9 0.7
v -1.8 2.1 0.7
v -1.6 1.9 0.7
v -1.6 2.1 0.7
v -1.4 1.8 0.7
v -1.4 1.9 0.7
v -1.4 2.1 0.7
v -1.4 2.2 0.7
v -1.4 2.3 0.7
v -1.3 1.8 0.7
v -1.3 1.9 0.7
v -1.1 1.8 0.7
v -1.1 1.9 0.7
v -1.1 2.1 0.7
v -1.1 2.2 0.7
v -1.1 2.3 0.7
v -1 1.8 0.7
v -1 1.9 0.7
v -1 2.1 0.7
v -1.8 1.9 0.6
v -1.8 2.1 0.6
v -1.6 1.9 0.6
v -1.6 2.1 0.6
v -1.4 1.8 0.6
v -1.4 1.9 0.6
v -1.4 2.1 0.6
v -1.4 2.2 0.6
v -1.4 2.3 0.6
v -1.3 1.8 0.6
v -1.3 1.9 0.6
v -1.1 1.8 0.6
v -1.1 1.9 0.6
v -1.1 2.1 0.6
v -1.1 2.2 0.6
v -1.1 2.3 0.6
v -1 1.8 0.6
v -1 1.9 0.6
v -1 2.1 0.6
v -1.4 1.8 0.7
v -1.3 1.8 0.7
v -1.1 1.8 0.7
v -1 1.8 0.7
v -1.4 1.8 0.6
v -1.3 1.8 0.6
v -1.1 1.8 0.6
v -1 1.8 0.6
v -1.8 1.9 0.7
v -1.6 1.9 0.7
v -1.4 1.9 0.7
v -1.3 1.9 0.7
v -1.1 1.9 0.7
v -1.8 1.9 0.6
v -1.6 1.9 0.6
v -1.4 1.9 0.6
v -1.3 1.9 0.6
v -1.1 1.9 0.6
v -1.8 2.1 0.7
v -1.6 2.1 0.7
v -1.4 2.1 0.7
v -1.1 2.1 0.7
v -1 2.1 0.7
v -1.8 2.1 0.6
v -1.6 2.1 0.6
v -1.4 2.1 0.6
v -1.1 2.1 0.6
v -1 2.1 0.6
v -1.4 2.3 0.7
v -1.1 2.3 0.7
v -1.4 2.3 0.6
v -1.1 2.3 0.6

# faces
f 3/1/1 2/1/1 1/1/1
f 4/1/1 2/1/1 3/1/1
f 7/4/1 6/4/1 5/4/1
f 8/4/1 6/4/1 7/4/1
f 11/3/1 10/3/1 9/3/1
f 12/3/1 10/3/1 11/3/1
f 13/2/1 12/2/1 11/2/1
f 14/2/1 12/2/1 13/2/1
f 17/4/1 16/4/1 15/4/1
f 18/4/1 16/4/1 17/4/1
f 19/4/2 20/4/2 21/4/2
f 21/4/2 20/4/2 22/4/2
f 23/3/2 24/3/2 25/3/2
f 25/3/2 24/3/2 26/3/2
f 25/2/2 26/2/2 27/2/2
f 27/2/2 26/2/2 28/2/2
f 29/4/2 30/4/2 31/4/2
f 31/4/2 30/4/2 32/4/2
f 31/3/2 32/3/2 33/3/2
f 33/3/2 32/3/2 34/3/2
f 37/1/3 36/1/3 35/1/3
f 38/1/3 36/1/3 37/1/3
f 40/5/3 38/5/3 37/5/3
f 41/5/3 38/5/3 40/5/3
f 44/4/3 40/4/3 39/4/3
f 45/3/3 41/3/3 40/3/3
f 45/4/3 40/4/3 44/4/3
f 45/3/3 42/3/3 41/3/3
f 47/3/3 42/3/3 45/3/3
f 48/3/3 42/3/3 47/3/3
f 49/2/3 43/2/3 42/2/3
f 49/3/3 42/3/3 48/3/3
f 50/2/3 43/2/3 49/2/3
f 51/4/3 47/4/3 46/4/3
f 52/3/3 48/3/3 47/3/3
f 52/4/3 47/4/3 51/4/3
f 53/3/3 48/3/3 52/3/3
f 54/1/4 55/1/4 56/1/4
f 56/1/4 55/1/4 57/1/4
f 56/5/4 57/5/4 59/5/4
f 59/5/4 57/5/4 60/5/4
f 58/4/4 59/4/4 63/4/4
f 59/3/4 60/3/4 64/3/4
f 63/4/4 59/4/4 64/4/4
f 60/3/4 61/3/4 64/3/4
f 64/3/4 61/3/4 66/3/4
f 66/3/4 61/3/4 67/3/4
f 61/2/4 62/2/4 68/2/4
f 67/3/4 61/3/4 68/3/4
f 68/2/4 62/2/4 69/2/4
f 65/4/4 66/4/4 70/4/4
f 66/3/4 67/3/4 71/3/4
f 70/4/4 66/4/4 71/4/4
f 71/3/4 67/3/4 72/3/4
f 77/4/5 74/4/5 73/4/5
f 78/4/5 74/4/5 77/4/5
f 79/4/5 76/4/5 75/4/5
f 80/4/5 76/4/5 79/4/5
f 86/1/5 82/1/5 81/1/5
f 87/5/5 83/5/5 82/5/5
f 87/1/5 82/1/5 86/1/5
f 88/5/5 83/5/5 87/5/5
f 89/3/5 85/3/5 84/3/5
f 90/3/5 85/3/5 89/3/5
f 91/1/6 92/1/6 96/1/6
f 92/5/6 93/5/6 97/5/6
f 96/1/6 92/1/6 97/1/6
f 97/5/6 93/5/6 98/5/6
f 94/3/6 95/3/6 99/3/6
f 99/3/6 95/3/6 100/3/6
f 101/2/6 102/2/6 103/2/6
f 103/2/6 102/2/6 104/2/6
