# MagicaVoxel @ Ephtracy

# group
o 

# material
mtllib FoxH.mtl
usemtl palette

# normals
vn -1 0 0
vn 1 0 0
vn 0 0 1
vn 0 0 -1
vn 0 -1 0
vn 0 1 0

# texcoords
vt 0.0605469 0.5
vt 0.0917969 0.5
vt 0.232422 0.5
vt 0.537109 0.5
vt 0.958984 0.5
vt 0.970703 0.5

# verts
v -1.1 2 0.7
v -1.1 2 0.6
v -1.1 2.2 0.7
v -1.1 2.2 0.6
v -1.1 2.3 0.7
v -1.1 2.3 0.6
v -1.1 2.5 0.7
v -1.1 2.5 0.6
v -0.8 2.4 0.7
v -0.8 2.4 0.6
v -0.8 2.5 0.7
v -0.8 2.5 0.6
v -0.9 2.4 0.7
v -0.9 2.4 0.6
v -0.9 2.5 0.7
v -0.9 2.5 0.6
v -0.6 2 0.7
v -0.6 2 0.6
v -0.6 2.1 0.7
v -0.6 2.1 0.6
v -0.6 2.2 0.7
v -0.6 2.2 0.6
v -0.6 2.3 0.7
v -0.6 2.3 0.6
v -0.6 2.5 0.7
v -0.6 2.5 0.6
v -1.1 2 0.7
v -1.1 2.2 0.7
v -1.1 2.3 0.7
v -1.1 2.5 0.7
v -1 2 0.7
v -1 2.1 0.7
v -1 2.2 0.7
v -1 2.3 0.7
v -1 2.4 0.7
v -0.9 2 0.7
v -0.9 2.1 0.7
v -0.9 2.2 0.7
v -0.9 2.4 0.7
v -0.9 2.5 0.7
v -0.8 2 0.7
v -0.8 2.1 0.7
v -0.8 2.2 0.7
v -0.8 2.4 0.7
v -0.8 2.5 0.7
v -0.7 2.1 0.7
v -0.7 2.2 0.7
v -0.7 2.3 0.7
v -0.7 2.4 0.7
v -0.6 2 0.7
v -0.6 2.1 0.7
v -0.6 2.2 0.7
v -0.6 2.3 0.7
v -0.6 2.5 0.7
v -1.1 2 0.6
v -1.1 2.2 0.6
v -1.1 2.3 0.6
v -1.1 2.5 0.6
v -1 2 0.6
v -1 2.1 0.6
v -1 2.2 0.6
v -1 2.3 0.6
v -1 2.4 0.6
v -0.9 2 0.6
v -0.9 2.1 0.6
v -0.9 2.2 0.6
v -0.9 2.4 0.6
v -0.9 2.5 0.6
v -0.8 2 0.6
v -0.8 2.1 0.6
v -0.8 2.2 0.6
v -0.8 2.4 0.6
v -0.8 2.5 0.6
v -0.7 2.1 0.6
v -0.7 2.2 0.6
v -0.7 2.3 0.6
v -0.7 2.4 0.6
v -0.6 2 0.6
v -0.6 2.1 0.6
v -0.6 2.2 0.6
v -0.6 2.3 0.6
v -0.6 2.5 0.6
v -1.1 2 0.7
v -1 2 0.7
v -0.9 2 0.7
v -0.8 2 0.7
v -0.6 2 0.7
v -1.1 2 0.6
v -1 2 0.6
v -0.9 2 0.6
v -0.8 2 0.6
v -0.6 2 0.6
v -0.9 2.4 0.7
v -0.8 2.4 0.7
v -0.9 2.4 0.6
v -0.8 2.4 0.6
v -1.1 2.5 0.7
v -0.9 2.5 0.7
v -0.8 2.5 0.7
v -0.6 2.5 0.7
v -1.1 2.5 0.6
v -0.9 2.5 0.6
v -0.8 2.5 0.6
v -0.6 2.5 0.6

# faces
f 3/5/1 2/5/1 1/5/1
f 4/5/1 2/5/1 3/5/1
f 5/1/1 4/1/1 3/1/1
f 6/1/1 4/1/1 5/1/1
f 7/2/1 6/2/1 5/2/1
f 8/2/1 6/2/1 7/2/1
f 11/2/1 10/2/1 9/2/1
f 12/2/1 10/2/1 11/2/1
f 13/2/2 14/2/2 15/2/2
f 15/2/2 14/2/2 16/2/2
f 17/6/2 18/6/2 19/6/2
f 19/6/2 18/6/2 20/6/2
f 19/5/2 20/5/2 21/5/2
f 21/5/2 20/5/2 22/5/2
f 21/3/2 22/3/2 23/3/2
f 23/3/2 22/3/2 24/3/2
f 23/2/2 24/2/2 25/2/2
f 25/2/2 24/2/2 26/2/2
f 31/5/3 28/5/3 27/5/3
f 32/5/3 28/5/3 31/5/3
f 33/1/3 29/1/3 28/1/3
f 33/5/3 28/5/3 32/5/3
f 34/2/3 30/2/3 29/2/3
f 34/1/3 29/1/3 33/1/3
f 35/2/3 30/2/3 34/2/3
f 36/6/3 32/6/3 31/6/3
f 37/4/3 33/4/3 32/4/3
f 37/6/3 32/6/3 36/6/3
f 38/1/3 34/1/3 33/1/3
f 38/4/3 33/4/3 37/4/3
f 38/1/3 35/1/3 34/1/3
f 39/2/3 30/2/3 35/2/3
f 39/1/3 35/1/3 38/1/3
f 40/2/3 30/2/3 39/2/3
f 41/4/3 37/4/3 36/4/3
f 42/3/3 38/3/3 37/3/3
f 42/4/3 37/4/3 41/4/3
f 42/3/3 39/3/3 38/3/3
f 43/3/3 39/3/3 42/3/3
f 44/3/3 39/3/3 43/3/3
f 46/6/3 42/6/3 41/6/3
f 46/4/3 43/4/3 42/4/3
f 47/3/3 44/3/3 43/3/3
f 47/4/3 43/4/3 46/4/3
f 48/3/3 44/3/3 47/3/3
f 49/2/3 45/2/3 44/2/3
f 49/3/3 44/3/3 48/3/3
f 50/6/3 46/6/3 41/6/3
f 51/5/3 47/5/3 46/5/3
f 51/6/3 46/6/3 50/6/3
f 52/3/3 48/3/3 47/3/3
f 52/5/3 47/5/3 51/5/3
f 53/2/3 49/2/3 48/2/3
f 53/3/3 48/3/3 52/3/3
f 54/2/3 45/2/3 49/2/3
f 54/2/3 49/2/3 53/2/3
f 55/5/4 56/5/4 59/5/4
f 59/5/4 56/5/4 60/5/4
f 56/1/4 57/1/4 61/1/4
f 60/5/4 56/5/4 61/5/4
f 57/2/4 58/2/4 62/2/4
f 61/1/4 57/1/4 62/1/4
f 62/2/4 58/2/4 63/2/4
f 59/6/4 60/6/4 64/6/4
f 60/4/4 61/4/4 65/4/4
f 64/6/4 60/6/4 65/6/4
f 61/1/4 62/1/4 66/1/4
f 65/4/4 61/4/4 66/4/4
f 62/1/4 63/1/4 66/1/4
f 63/2/4 58/2/4 67/2/4
f 66/1/4 63/1/4 67/1/4
f 67/2/4 58/2/4 68/2/4
f 64/4/4 65/4/4 69/4/4
f 65/3/4 66/3/4 70/3/4
f 69/4/4 65/4/4 70/4/4
f 66/3/4 67/3/4 70/3/4
f 70/3/4 67/3/4 71/3/4
f 71/3/4 67/3/4 72/3/4
f 69/6/4 70/6/4 74/6/4
f 70/4/4 71/4/4 74/4/4
f 71/3/4 72/3/4 75/3/4
f 74/4/4 71/4/4 75/4/4
f 75/3/4 72/3/4 76/3/4
f 72/2/4 73/2/4 77/2/4
f 76/3/4 72/3/4 77/3/4
f 69/6/4 74/6/4 78/6/4
f 74/5/4 75/5/4 79/5/4
f 78/6/4 74/6/4 79/6/4
f 75/3/4 76/3/4 80/3/4
f 79/5/4 75/5/4 80/5/4
f 76/2/4 77/2/4 81/2/4
f 80/3/4 76/3/4 81/3/4
f 77/2/4 73/2/4 82/2/4
f 81/2/4 77/2/4 82/2/4
f 88/5/5 84/5/5 83/5/5
f 89/6/5 85/6/5 84/6/5
f 89/5/5 84/5/5 88/5/5
f 90/4/5 86/4/5 85/4/5
f 90/6/5 85/6/5 89/6/5
f 91/6/5 87/6/5 86/6/5
f 91/4/5 86/4/5 90/4/5
f 92/6/5 87/6/5 91/6/5
f 93/3/6 94/3/6 95/3/6
f 95/3/6 94/3/6 96/3/6
f 97/2/6 98/2/6 101/2/6
f 101/2/6 98/2/6 102/2/6
f 99/2/6 100/2/6 103/2/6
f 103/2/6 100/2/6 104/2/6
